<svg width="480" height="300" viewBox="0 0 480 300" xmlns="http://www.w3.org/2000/svg" role="img" aria-label="Future market">
  <defs>
    <linearGradient id="bg3" x1="0" y1="0" x2="1" y2="1">
      <stop offset="0" stop-color="#1b1539"/>
      <stop offset="1" stop-color="#102847"/>
    </linearGradient>
    <radialGradient id="orb" cx="0.5" cy="0.45" r="0.6">
      <stop offset="0" stop-color="#7f95ff" stop-opacity="0.9"/>
      <stop offset="1" stop-color="#7f95ff" stop-opacity="0"/>
    </radialGradient>
  </defs>
  <rect x="0" y="0" width="480" height="300" rx="24" fill="url(#bg3)"/>
  <circle cx="340" cy="120" r="88" fill="url(#orb)"/>
  <g stroke="#cddfff" stroke-width="1" opacity="0.28">
    <ellipse cx="240" cy="184" rx="168" ry="62" fill="none"/>
    <ellipse cx="240" cy="184" rx="122" ry="44" fill="none"/>
    <ellipse cx="240" cy="184" rx="84" ry="30" fill="none"/>
  </g>
  <path d="M104 210 L172 164 L226 186 L292 138 L352 156" fill="none" stroke="#ffc247" stroke-width="6" stroke-linecap="round"/>
  <g fill="#00e7ff" opacity="0.95">
    <rect x="92" y="220" width="30" height="14" rx="6"/>
    <rect x="152" y="202" width="30" height="14" rx="6"/>
    <rect x="212" y="214" width="30" height="14" rx="6"/>
    <rect x="272" y="186" width="30" height="14" rx="6"/>
    <rect x="332" y="198" width="30" height="14" rx="6"/>
  </g>
  <text x="32" y="54" fill="#eef5ff" font-size="22" font-family="Arial, sans-serif" font-weight="700">Future Workforce Outlook</text>
</svg>
